<?xml version="1.0" encoding="UTF-8"?>
<svg xmlns="http://www.w3.org/2000/svg" width="300px" height="300px" viewBox="0 0 120 120" fill="none">
  <path d="M0 0V1.72153L43.8629 16.8238L60.0056 0H0Z" fill="#10aa9e"></path>
  <path d="M43.8629 16.8222L60.0056 0H120V43.0342L43.8629 16.8222Z" fill="#008f7f"></path>
  <path d="M0 120H68.8127L78.8016 110.167L88.0323 101.1L89.6934 101.622L117.319 110.156L120 110.989V96.7686L99.3255 90.3444L111.332 79L120 81.6494V43.0342L43.8629 16.8222L0 62.5237V120ZM65.5574 106.689C65.1561 107.056 64.7213 107.433 64.2642 107.756C60.2062 110.822 54.0301 112.567 47.9877 112.567C45.2564 112.567 42.5474 112.211 40.0836 111.456L32.4025 109.1L10.0167 102.278L14.5541 98.0111L30.1282 83.3111L51.5217 89.8667L52.5139 90.1667L60.1951 92.5111C68.7124 95.1222 71.1204 101.467 65.5574 106.711V106.689ZM83.1048 77.8222C80.7413 80.0444 76.6053 81.3333 72.6031 81.3333C70.9532 81.3333 69.3478 81.1222 67.8651 80.6667L61.9008 78.8444L54.8551 76.7L41.4771 72.6111L53.495 61.2778L80.6299 69.5889C85.1003 71.2889 86.2486 74.8444 83.0936 77.8222H83.1048Z" fill="#ffffff"></path>
  <path d="M0 62.5237L43.8629 16.8222L0 1.72137V62.5237Z" fill="#d9d9d9"></path>
</svg>
