<svg width="20" height="20" viewBox="0 0 20 20" fill="currentColor" xmlns="http://www.w3.org/2000/svg">
  <path fill-rule="evenodd" clip-rule="evenodd" d="M10.1449 0H5.94203C5.09884 0 4.35577 0.198791 3.79602 0.348537V0.348538C3.6823 0.378961 3.57615 0.407359 3.47826 0.431655C2.89855 0.719424 2.31884 1.15108 1.73913 1.72662C1.15942 2.30216 0.724638 2.8777 0.57971 3.45324C0.289855 4.17266 0.144928 4.89209 0 5.89928V10.0719V14.2446C0 15.0817 0.200231 15.8195 0.351062 16.3752C0.381706 16.4881 0.41031 16.5935 0.434783 16.6906C0.724638 17.4101 1.01449 17.9856 1.5942 18.4173C2.17391 18.9928 2.75362 19.2806 3.33333 19.5683C3.91304 19.8561 4.78261 20 5.7971 20H10H14.2029C15.0461 20 15.7892 19.8012 16.3489 19.6515L16.349 19.6514C16.4627 19.621 16.5688 19.5926 16.6667 19.5683C17.3913 19.2806 17.971 18.9928 18.4058 18.4173V18.4172C18.8406 17.8417 19.2754 17.2662 19.5652 16.6906C19.8551 16.1151 20 15.2518 20 14.2446V10.0719V5.89928C20 5.06216 19.7998 4.32443 19.6489 3.76871C19.6183 3.65581 19.5897 3.55042 19.5652 3.45324C19.2754 2.73381 18.9855 2.15827 18.4058 1.72662C18.2157 1.58505 18.0411 1.42801 17.872 1.2758C17.5253 0.963884 17.2012 0.672236 16.8116 0.57554C16.2319 0.28777 15.3623 0.143885 14.3478 0.143885C13.1884 0 12.8986 0 10.1449 0ZM10.1449 1.8705H14.2029C15.2174 1.8705 15.7971 2.01439 16.087 2.15827C16.5217 2.30216 16.9565 2.58993 17.2464 2.8777C17.5362 3.16547 17.8261 3.59712 17.971 4.02878C18.1159 4.31655 18.2609 4.89209 18.2609 5.89928V9.92806V13.9568C18.2609 14.964 18.1159 15.5396 17.971 15.8273C17.8261 16.259 17.5362 16.6906 17.2464 16.9784C16.9565 17.2662 16.5217 17.554 16.087 17.6978C15.7971 17.8417 15.2174 17.9856 14.2029 17.9856H10.1449H6.08696C5.07246 17.9856 4.49275 17.8417 4.2029 17.6978C3.76812 17.554 3.33333 17.2662 3.04348 16.9784C2.75362 16.6906 2.46377 16.259 2.31884 15.8273C2.17391 15.5396 2.02899 14.964 2.02899 13.9568V9.92806V5.89928C2.02899 4.89209 2.17391 4.31655 2.31884 4.02878C2.46377 3.59712 2.75362 3.16547 3.04348 2.8777C3.33333 2.58993 3.76812 2.30216 4.2029 2.15827C4.49275 2.01439 5.07246 1.8705 6.08696 1.8705H10.1449ZM10.1458 13.381C8.26172 13.381 6.81244 11.9421 6.81244 10.0716C6.81244 8.20112 8.26172 6.76227 10.1458 6.76227C12.0298 6.76227 13.4791 8.20112 13.4791 10.0716C13.4791 11.9421 12.0298 13.381 10.1458 13.381ZM10.1458 4.89176C7.24723 4.89176 4.92839 7.19392 4.92839 10.0716C4.92839 12.9493 7.24723 15.2515 10.1458 15.2515C13.0443 15.2515 15.3632 12.9493 15.3632 10.0716C15.3632 7.19392 13.0443 4.89176 10.1458 4.89176ZM15.6516 5.89898C16.2313 5.89898 16.811 5.46733 16.811 4.7479C16.811 4.02848 16.2313 3.45294 15.6516 3.59682C15.0719 3.59682 14.4922 4.02848 14.4922 4.7479C14.4922 5.32344 14.927 5.89898 15.6516 5.89898Z"/>
</svg>
