<svg width="20" height="20" viewBox="0 0 20 20" fill="currentColor" xmlns="http://www.w3.org/2000/svg">
  <path d="M20 1.15702V18.843C20 19.5041 19.5 20 18.8333 20H13.8333V12.2314H16.5L16.8333 9.2562H13.8333V7.27273C13.8333 6.44628 14 5.78512 15.3333 5.78512H17V3.1405C16.6667 3.1405 15.8333 2.97521 14.6667 2.97521C12.3333 2.97521 10.8333 4.29752 10.8333 6.94215V9.09091H8V12.0661H10.6667V19.8347H1.16667C0.5 19.8347 0 19.3388 0 18.6777V1.15702C0 0.495868 0.5 0 1.16667 0H19C19.5 0 20 0.495868 20 1.15702Z" />
</svg>
