<svg width="20" height="20" viewBox="0 0 20 20" fill="currentColor" xmlns="http://www.w3.org/2000/svg">
  <path d="M20 4.02703C19.3243 4.2973 18.5135 4.56757 17.7027 4.7027C18.5135 4.16216 19.1892 3.35135 19.4595 2.40541C18.6486 2.81081 17.8378 3.21622 16.8919 3.35135C16.0811 2.54054 15.1351 2 13.9189 2C11.6216 2 9.86487 3.89189 9.86487 6.05405C9.86487 6.32432 9.86487 6.72973 10 7C6.48649 7 3.37838 5.37838 1.35135 2.94595C1.08108 3.48649 0.810811 4.16216 0.810811 4.97297C0.810811 6.45946 1.48649 7.67568 2.56757 8.35135C1.89189 8.35135 1.21622 8.08108 0.675676 7.81081C0.675676 9.83784 2.02703 11.4595 3.91892 11.8649C3.78378 12 3.37838 12 2.97297 12C2.7027 12 2.43243 12 2.16216 11.8649C2.7027 13.6216 4.32432 14.8378 6.08108 14.8378C4.72973 15.9189 2.97297 16.5946 0.945946 16.5946C0.675676 16.5946 0.27027 16.5946 0 16.5946C1.75676 17.6757 3.91892 18.3514 6.21622 18.3514C13.7838 18.3514 17.8378 12.1351 17.8378 6.72973C17.8378 6.59459 17.8378 6.32432 17.8378 6.18919C18.6486 5.64865 19.4595 4.83784 20 4.02703Z" />
</svg>
