<svg width="20" height="20" viewBox="0 0 20 20" fill="currentColor" xmlns="http://www.w3.org/2000/svg">
  <path fill-rule="evenodd" d="M16.7254 11.9479C16.9042 11.3295 17 10.6759 17 10C17 9.32406 16.9042 8.67049 16.7254 8.05214L16.6039 8.06896C16.2495 8.11728 15.7376 8.18123 15.0995 8.24504C14.7496 8.28003 14.3613 8.31502 13.9399 8.34737C13.9786 8.8677 14 9.41842 14 10C14 10.5816 13.9786 11.1323 13.9399 11.6526C14.3613 11.685 14.7496 11.72 15.0995 11.755C15.7376 11.8188 16.2495 11.8827 16.6039 11.931L16.7254 11.9479ZM11.9429 11.5377C11.3299 11.5141 10.6791 11.5 10 11.5C9.32086 11.5 8.67011 11.5141 8.05708 11.5377C8.0205 11.0568 8 10.5444 8 10C8 9.45557 8.0205 8.94321 8.05708 8.46234C8.67011 8.48588 9.32086 8.5 10 8.5C10.6791 8.5 11.3299 8.48588 11.9429 8.46234C11.9795 8.94321 12 9.45557 12 10C12 10.5444 11.9795 11.0568 11.9429 11.5377ZM13.6914 6.36047C14.1331 6.32741 14.5383 6.29118 14.9005 6.25496C15.2612 6.21889 15.5789 6.18287 15.8471 6.15007C15.1376 5.0746 14.1393 4.20644 12.9626 3.656C13.2336 4.38042 13.4975 5.27954 13.6914 6.36047ZM10.4691 3.01547C10.6287 3.29204 10.8454 3.71572 11.0655 4.2935C11.2828 4.8639 11.5044 5.58721 11.6773 6.47071C11.1441 6.48916 10.5828 6.5 10 6.5C9.41718 6.5 8.85591 6.48916 8.32271 6.47071C8.49556 5.58721 8.71719 4.8639 8.93449 4.2935C9.15459 3.71572 9.37133 3.29204 9.53092 3.01547C9.68595 3.00521 9.84237 3 10 3C10.1576 3 10.314 3.00521 10.4691 3.01547ZM11.6773 13.5293C11.5044 14.4128 11.2828 15.1361 11.0655 15.7065C10.8454 16.2843 10.6287 16.708 10.4691 16.9845C10.314 16.9948 10.1576 17 10 17C9.84237 17 9.68596 16.9948 9.53092 16.9845C9.37134 16.708 9.15459 16.2843 8.93449 15.7065C8.71719 15.1361 8.49557 14.4128 8.32271 13.5293C8.85592 13.5108 9.41718 13.5 10 13.5C10.5828 13.5 11.1441 13.5108 11.6773 13.5293ZM12.9626 16.344C13.2336 15.6196 13.4975 14.7205 13.6914 13.6395C14.1331 13.6726 14.5383 13.7088 14.9005 13.745C15.2612 13.7811 15.5789 13.8171 15.8471 13.8499C15.1376 14.9254 14.1393 15.7936 12.9626 16.344ZM6 10C6 9.41842 6.02142 8.8677 6.06008 8.34737C5.6387 8.31502 5.25044 8.28003 4.9005 8.24504C4.26245 8.18123 3.75052 8.11728 3.39614 8.06896L3.27458 8.05214C3.09581 8.67049 3 9.32406 3 10C3 10.6759 3.09581 11.3295 3.27458 11.9479L3.39614 11.931C3.75052 11.8827 4.26245 11.8188 4.9005 11.755C5.25044 11.72 5.6387 11.685 6.06008 11.6526C6.02142 11.1323 6 10.5816 6 10ZM6.3086 6.36047C6.50245 5.27953 6.76643 4.38042 7.03739 3.65601C5.86073 4.20644 4.86242 5.0746 4.15287 6.15007C4.42113 6.18287 4.7388 6.21889 5.0995 6.25496C5.46172 6.29118 5.86689 6.32741 6.3086 6.36047ZM5.0995 13.745C5.46172 13.7088 5.86689 13.6726 6.3086 13.6395C6.50245 14.7205 6.76643 15.6196 7.03739 16.344C5.86073 15.7936 4.86242 14.9254 4.15287 13.8499C4.42113 13.8171 4.7388 13.7811 5.0995 13.745ZM10 19C14.9706 19 19 14.9706 19 10C19 5.02944 14.9706 1 10 1C5.02944 1 1 5.02944 1 10C1 14.9706 5.02944 19 10 19Z" />
</svg>
