<svg width="20" height="20" viewBox="0 0 20 20" fill="currentColor" xmlns="http://www.w3.org/2000/svg">
  <path d="M18.6615 0C18.6615 0 7.14397 0 1.38521 0C1.08949 0 0 0.249027 0 1.52529V18.5058C0 19.7043 0.996109 20 1.41634 20C7.14397 20 12.856 20 18.5837 20C19.7198 20 20 18.9572 20 18.5525C20 18.5525 20 3.1751 20 1.50973C19.9844 0.233463 18.9261 0 18.6615 0ZM10.6615 8.79377C10.7237 8.71595 10.7549 8.66926 10.786 8.63813C11.1907 8.03113 11.751 7.62646 12.4514 7.40856C13.0895 7.20623 13.7276 7.23735 14.3658 7.33074C15.4708 7.50195 16.2802 8.06226 16.6848 9.13619C16.9494 9.83658 17.0428 10.5525 17.0584 11.2996C17.0739 13.1673 17.0584 15.035 17.0739 16.8872C17.0739 17.0584 17.0272 17.1206 16.856 17.1051C16.0156 17.1051 15.1595 17.1051 14.3191 17.1051C14.1323 17.1051 14.0856 17.0584 14.0856 16.8716C14.0856 15.3619 14.1012 13.8677 14.0856 12.358C14.0856 11.9222 14.0545 11.4864 13.9767 11.0661C13.8677 10.4903 13.572 10.0545 12.9494 9.94553C12.7315 9.89883 12.5136 9.9144 12.2957 9.92996C11.6732 9.96109 11.2374 10.2724 11.0039 10.8327C10.8327 11.2529 10.786 11.7198 10.786 12.1712C10.786 13.7432 10.786 15.3152 10.786 16.8872C10.786 17.0584 10.7237 17.1051 10.5681 17.1051C9.72763 17.1051 8.87159 17.1051 8.03113 17.1051C7.79766 17.1051 7.7821 17.1051 7.7821 16.8405C7.7821 16.8405 7.7821 9.57198 7.7821 7.75097C7.7821 7.50195 7.7821 7.50195 8.03113 7.50195H10.5058C10.6459 7.50195 10.6926 7.54864 10.6926 7.68872C10.6459 8.03113 10.6615 8.3891 10.6615 8.79377ZM5.94553 16.8872C5.94553 17.0584 5.89883 17.1206 5.72763 17.1206C4.87159 17.1206 4.01556 17.1206 3.14397 17.1206C2.98833 17.1206 2.92607 17.0739 2.92607 16.9027V7.71984C2.92607 7.54864 2.97276 7.51751 3.14397 7.51751C4 7.51751 4.85603 7.51751 5.71206 7.51751C5.94553 7.51751 5.96109 7.51751 5.96109 7.76654L5.94553 16.8872ZM4.4358 2.75486C5.40078 2.75486 6.16342 3.51751 6.16342 4.48249C6.17899 5.44747 5.41634 6.22568 4.4358 6.22568C3.48638 6.22568 2.69261 5.44747 2.69261 4.49805C2.70817 3.51751 3.47082 2.75486 4.4358 2.75486Z" />
</svg>
