<?xml version="1.0" encoding="UTF-8"?>
<svg xmlns="http://www.w3.org/2000/svg" width="300px" height="90px" viewBox="0 0 200 60" fill="none">
  <path d="M0 0L24.2255 8.36772L32.2288 0H0Z" fill="#10aa9e"></path>
  <path d="M32.2288 0L24.2255 8.36695L64.4521 22.2603V0H32.2288Z" fill="#008f7f"></path>
  <path d="M64.4521 41.365V22.2603L24.2255 8.36695L0 33.6889V59.685H36.5953L41.5476 54.7941L46.1241 50.2846L46.9476 50.5444L60.6439 54.7886L64.4521 55.9768V48.903L51.7231 44.9351L57.6758 39.2926L64.4521 41.3705V41.365ZM34.9813 53.0644C34.7824 53.2468 34.5668 53.4347 34.3402 53.5949C32.3283 55.1202 29.2663 55.9878 26.2706 55.9878C24.9164 55.9878 23.5733 55.811 22.3518 55.4352L18.5436 54.2636L15.056 53.197L7.44507 50.8704L9.69463 48.7483L11.9663 46.5985L17.4161 41.4369L25.0214 43.7745L28.0227 44.6974L28.5146 44.8466L32.3228 46.0127C36.5455 47.3114 37.7394 50.467 34.9813 53.0754V53.0644ZM43.6811 38.7068C42.5093 39.8121 40.4588 40.4532 38.4745 40.4532C37.6565 40.4532 36.8606 40.3482 36.1255 40.1216L33.1684 39.2153L29.6753 38.1487L23.0427 36.115L29.001 30.478L42.4541 34.6118C44.6704 35.4573 45.2397 37.2258 43.6756 38.7068H43.6811Z" fill="#262053"></path>
  <path d="M0 33.6889L24.2255 8.36695L0 0V33.6889Z" fill="#383266"></path>
  <path d="M82.6475 39.7292C86.1075 39.7292 88.0586 37.386 88.0586 34.7389V34.7334C88.0586 32.7604 87.014 30.9036 84.8086 30.3233C86.2457 29.8149 87.1521 28.3504 87.1521 26.8417C87.1521 24.7527 85.5493 22.5698 82.2993 22.5698H75.009V39.7292H82.6475ZM78.1429 29.3562V25.3827H81.7908C83.2057 25.3827 83.974 26.3111 83.974 27.3114C83.974 28.3117 83.2555 29.3562 81.6747 29.3562H78.1429ZM82.045 32.0475C83.9298 32.0475 84.7865 33.2744 84.7865 34.5068C84.7865 35.6673 83.8801 36.8997 82.045 36.8997H78.1429V32.0475H82.045Z" fill="#262053"></path>
  <path fill-rule="evenodd" d="M100.66 39.7292V32.2078L100.655 32.1967C100.655 28.1791 97.8693 26.8085 94.9178 26.8085C92.7788 26.8085 90.9935 27.5048 89.761 28.273L90.8995 30.5278C91.9939 29.9033 93.4089 29.4612 94.8017 29.4612C96.4709 29.4612 97.6593 30.1354 97.8195 31.8762C97.0738 31.9632 96.2598 31.9726 95.5171 31.9811C95.2689 31.984 95.0287 31.9867 94.8017 31.9923C91.3417 32.0199 89.2303 33.4789 89.2303 35.9657C89.2303 38.2647 90.8609 40.0553 93.7847 40.0553C95.6197 40.0553 97.0347 39.3589 97.919 38.2426V39.7292H100.66ZM97.7753 34.1812C97.0362 34.2527 96.248 34.2747 95.5037 34.2747C93.4807 34.2968 92.1818 34.5289 92.1818 35.9215C92.1818 36.966 93.0164 37.5684 94.2711 37.5684C96.1999 37.5684 97.6148 36.1539 97.7753 34.1812Z" fill="#262053"></path>
  <path d="M102.656 27.1235H105.558V28.8643C106.348 27.4496 107.553 26.7975 109.062 26.7975C109.526 26.7975 110.062 26.8693 110.571 27.0517L110.316 29.953C109.83 29.7928 109.316 29.6988 108.852 29.6988C107.111 29.6988 105.668 30.8151 105.668 33.5783V39.7292H102.65V27.118L102.656 27.1235Z" fill="#262053"></path>
  <path d="M115.153 27.1235H112.251L112.245 27.118V39.7292H115.263V33.5783C115.263 30.8151 116.706 29.6988 118.447 29.6988C118.911 29.6988 119.425 29.7928 119.912 29.953L120.166 27.0517C119.657 26.8693 119.121 26.7975 118.657 26.7975C117.148 26.7975 115.943 27.4496 115.153 28.8643V27.1235Z" fill="#262053"></path>
  <path d="M75.009 42.509H86.2236V45.5264H78.165V49.6601H85.2232V52.6775H78.165V59.6684H75.009V42.509Z" fill="#262053"></path>
  <path d="M93.6079 46.7367C89.6117 46.7367 86.8703 49.7099 86.8703 53.3573C86.8703 57.0268 89.6117 60 93.6079 60C97.604 60 100.345 57.0047 100.345 53.3573C100.345 49.7099 97.604 46.7367 93.6079 46.7367ZM93.6079 49.5496C95.6971 49.5496 97.3 51.2683 97.3 53.3573C97.3 55.4905 95.6971 57.1871 93.6079 57.1871C91.5186 57.1871 89.9157 55.4463 89.9157 53.3573C89.9157 51.2683 91.5186 49.5496 93.6079 49.5496Z" fill="#262053"></path>
  <path d="M102.081 54.4018V47.0627H105.121V54.4018C105.121 56.0763 106.099 57.2092 107.768 57.2092C109.438 57.2092 110.438 56.0707 110.438 54.4018V47.0627H113.478V54.4018C113.478 57.9331 111.295 59.9724 107.763 59.9724C104.231 59.9724 102.075 57.9055 102.075 54.4018H102.081Z" fill="#262053"></path>
  <path d="M115.506 47.0627H115.501L115.506 47.0572V47.0627Z" fill="#262053"></path>
  <path d="M115.506 47.0627H118.475V48.8256C119.149 47.5933 120.586 46.7367 122.449 46.7367C125.002 46.7367 127.395 48.4112 127.395 51.9867V59.6739H124.355V52.8212C124.355 50.6604 123.217 49.4999 121.592 49.4999C119.779 49.4999 118.524 50.8925 118.524 52.8654V59.6684H115.506V47.0627Z" fill="#262053"></path>
  <path d="M142.33 42.0227V59.6684H139.378V58.0216C138.472 59.1379 137.173 59.9724 135.36 59.9724C131.762 59.9724 129.087 57.1152 129.087 53.3518C129.087 49.5883 131.778 46.7588 135.332 46.7588C137.123 46.7588 138.4 47.5712 139.306 48.6654V42.0227H142.33ZM139.472 53.3573C139.472 51.2683 138.007 49.5275 135.78 49.5275C133.553 49.5275 132.11 51.2683 132.11 53.3573C132.11 55.4463 133.575 57.2147 135.78 57.2147C137.985 57.2147 139.472 55.496 139.472 53.3573Z" fill="#262053"></path>
  <path fill-rule="evenodd" d="M155.307 59.6684V52.147L155.302 52.1359C155.302 48.1183 152.516 46.7477 149.565 46.7477C147.426 46.7477 145.64 47.444 144.408 48.2122L145.547 50.467C146.641 49.8425 148.056 49.4004 149.449 49.4004C151.118 49.4004 152.306 50.0746 152.466 51.8154C151.721 51.9024 150.907 51.9118 150.164 51.9203C149.916 51.9232 149.676 51.9259 149.449 51.9315C145.989 51.9591 143.877 53.4181 143.877 55.9049C143.877 58.2039 145.508 59.9945 148.432 59.9945C150.267 59.9945 151.682 59.2981 152.566 58.1818V59.6684H155.307ZM152.422 54.1205C151.683 54.1919 150.895 54.2139 150.151 54.2139C148.128 54.236 146.829 54.4681 146.829 55.8607C146.829 56.9052 147.663 57.5076 148.918 57.5076C150.847 57.5076 152.262 56.0931 152.422 54.1205Z" fill="#262053"></path>
  <path d="M166.461 58.9279C165.488 59.6021 164.09 59.9724 162.813 59.9724C159.956 59.9724 158.491 58.2537 158.491 55.0484V49.6159H156.402V47.0627H158.541V42.6029H161.537V47.0627H165.765V49.6159H161.537V54.9323C161.537 56.4189 162.073 57.2092 163.372 57.2092C164.184 57.2092 164.88 56.9328 165.511 56.5571L166.461 58.9279Z" fill="#262053"></path>
  <path d="M169.811 41.7408C168.722 41.7408 167.86 42.5587 167.86 43.6474C167.86 44.7637 168.738 45.554 169.811 45.554C170.883 45.554 171.718 44.7416 171.718 43.6474C171.718 42.5532 170.9 41.7408 169.811 41.7408Z" fill="#262053"></path>
  <path d="M168.252 47.0572V59.6684H171.292V47.0572H168.252Z" fill="#262053"></path>
  <path d="M172.729 53.3573C172.729 49.7099 175.471 46.7367 179.467 46.7367C183.463 46.7367 186.204 49.7099 186.204 53.3573C186.204 57.0047 183.463 60 179.467 60C175.471 60 172.729 57.0268 172.729 53.3573ZM183.159 53.3573C183.159 51.2683 181.556 49.5496 179.467 49.5496C177.377 49.5496 175.775 51.2683 175.775 53.3573C175.775 55.4463 177.377 57.1871 179.467 57.1871C181.556 57.1871 183.159 55.4905 183.159 53.3573Z" fill="#262053"></path>
  <path d="M188.111 47.0627H188.106L188.111 47.0572V47.0627Z" fill="#262053"></path>
  <path d="M188.111 47.0627H191.079V48.8256C191.754 47.5933 193.191 46.7367 195.053 46.7367C197.607 46.7367 200 48.4112 200 51.9867V59.6739H196.96V52.8212C196.96 50.6604 195.821 49.4999 194.197 49.4999C192.384 49.4999 191.129 50.8925 191.129 52.8654V59.6684H188.111V47.0627Z" fill="#262053"></path>
</svg>
