<?xml version="1.0" encoding="utf-8"?>
<!-- Generator: Adobe Illustrator 24.1.0, SVG Export Plug-In . SVG Version: 6.00 Build 0)  -->
<svg version="1.1" id="Layer_1" xmlns="http://www.w3.org/2000/svg" xmlns:xlink="http://www.w3.org/1999/xlink" x="0px" y="0px"
   viewBox="0 0 29.9 20" style="enable-background:new 0 0 29.9 20;" xml:space="preserve">
<g id="XMLID_1_">
  <path id="XMLID_5_" d="M6,12h2v2H6c-3,0-6-3.4-6-7s3.1-7,6-7h8c2.9,0,6,3.4,6,7c0,2.8-1.8,5.4-4,6.5v-2.3c1.2-0.9,2-2.5,2-4.2
    c0-2.5-2-5-4-5H6C4.1,2,2,4.5,2,7S4,12,6,12z M24,6h-2v2h2c2,0,4,2.4,4,5s-2,5-4,5h-8c-1.9,0-4-2.4-4-5c0-1.7,0.8-3.3,2-4.2V6.5
    c-2.2,1.1-4,3.7-4,6.5c0,3.6,3.1,7,6,7h8c2.9,0,6-3.4,6-7S27,6,24,6z"/>
</g>
</svg>
