<svg width="232" height="32" viewBox="0 0 232 32" fill="none" xmlns="http://www.w3.org/2000/svg">
  <path d="M0 1.125L12.0689 5.29433L16.06 1.125H0Z" fill="#10aa9e"/>
  <path d="M16.0599 1.125L12.0688 5.29433L32.1136 12.2177V1.125H16.0599Z" fill="#008f7f"/>
  <path d="M32.1136 21.7357V12.2177L12.0689 5.29433L0 17.9107V30.865H18.234L20.7014 28.4296L22.9838 26.1856L23.3982 26.3131L30.2201 28.4296L32.12 29.0225V25.4971L25.7764 23.5208L28.7409 20.7094L32.12 21.7421L32.1136 21.7357ZM17.4307 27.5627C17.3287 27.6518 17.2267 27.7475 17.1119 27.824C16.1109 28.5827 14.5809 29.0162 13.0954 29.0162C12.4195 29.0162 11.7501 28.9269 11.1445 28.7421L9.24453 28.1556L7.51039 27.6263L3.71694 26.4661L4.83903 25.4078L5.96751 24.3368L8.68349 21.7612L12.4705 22.9279L13.9625 23.387L14.211 23.457L16.1109 24.0371C18.2149 24.681 18.8079 26.2558 17.4371 27.5563L17.4307 27.5627ZM21.7661 20.4098C21.1795 20.958 20.1594 21.2768 19.1712 21.2768C18.7632 21.2768 18.3679 21.2257 17.9982 21.111L16.5254 20.6584L14.7849 20.1229L11.4823 19.1092L14.4533 16.2977L21.154 18.357C22.257 18.7777 22.5439 19.6575 21.7661 20.397V20.4098Z" fill="#f5f5f5"/>
  <path d="M0 17.9107L12.0689 5.29433L0 1.125V17.9107Z" fill="#c7c9ca"/>
  <path d="M198.43 11.9259C197.256 11.9259 196.338 12.7993 196.338 13.966C196.338 15.1581 197.282 16.006 198.43 16.006C199.577 16.006 200.47 15.139 200.47 13.966C200.47 12.7929 199.603 11.9259 198.43 11.9259ZM196.759 17.619V31.1153H200.017V17.619H196.759ZM169.016 12.2255V31.1153H165.86V29.3494C164.891 30.5415 163.501 31.434 161.562 31.434C157.711 31.434 154.848 28.3803 154.848 24.3512C154.848 20.322 157.73 17.2938 161.537 17.2938C163.45 17.2938 164.821 18.1609 165.79 19.3339V12.2255H169.016ZM165.956 24.3512C165.956 22.1135 164.387 20.2519 162.002 20.2519C159.618 20.2519 158.075 22.1135 158.075 24.3512C158.075 26.5889 159.643 28.476 162.002 28.476C164.362 28.476 165.956 26.6399 165.956 24.3512ZM50.296 31.1153C54.0005 31.1153 56.0856 28.6035 56.0856 25.7729H56.0919C56.0919 23.6563 54.9697 21.6672 52.6105 21.0488C54.1536 20.5005 55.1228 18.9323 55.1228 17.3193C55.1228 15.0816 53.4076 12.7483 49.9262 12.7483H42.1216V31.1153H50.296ZM45.4691 20.0097V15.7574H45.4755H49.3778C50.889 15.7574 51.7115 16.7519 51.7115 17.8229C51.7115 18.894 50.94 20.0097 49.2503 20.0097H45.4691ZM49.6456 22.8912C51.6605 22.8912 52.5787 24.2045 52.5787 25.5242C52.5787 26.7673 51.6095 28.087 49.6456 28.087H45.4691V22.8912H49.6456ZM69.5778 31.1153V23.0633C69.5778 18.7665 66.5938 17.3001 63.4375 17.3001C61.1548 17.3001 59.2419 18.0461 57.9221 18.8685L59.1399 21.2783C60.3068 20.6089 61.8243 20.1371 63.3163 20.1371C65.1081 20.1371 66.377 20.8576 66.5492 22.7191C65.7627 22.8081 64.9109 22.8179 64.1301 22.827C63.8477 22.8303 63.5737 22.8335 63.3163 22.8403C59.6118 22.8657 57.3482 24.434 57.3482 27.0925C57.3482 29.5533 59.0889 31.4658 62.2196 31.4658C64.1836 31.4658 65.7011 30.7199 66.6448 29.5278V31.1153H69.5778ZM64.0624 25.2756C64.8595 25.2756 65.7011 25.2501 66.4981 25.1735L66.5045 25.1799C66.326 27.2901 64.8148 28.8074 62.7488 28.8074C61.4035 28.8074 60.5108 28.1571 60.5108 27.0415C60.5108 25.5496 61.9008 25.3011 64.0624 25.2756ZM71.7139 17.619H74.8191V19.4805C75.6672 17.9632 76.9551 17.2683 78.5748 17.2683C79.0721 17.2683 79.646 17.3448 80.188 17.5425L79.9138 20.6472C79.391 20.475 78.8426 20.373 78.3452 20.373C76.4833 20.373 74.9403 21.5651 74.9403 24.5233V31.1089H71.7075V17.6126L71.7139 17.619ZM85.0849 17.619H81.9797L81.9734 17.6126V31.1089H85.2061V24.5233C85.2061 21.5651 86.7492 20.373 88.6111 20.373C89.1084 20.373 89.6568 20.475 90.1796 20.6472L90.4538 17.5425C89.9118 17.3448 89.338 17.2683 88.8406 17.2683C87.2211 17.2683 85.9331 17.9632 85.0849 19.4805V17.619ZM96.9639 12.7483H108.971V15.9805H100.344V20.4049H107.899V23.6371H100.344V31.1153H96.9639V12.7483ZM116.871 17.2747C112.599 17.2747 109.666 20.4559 109.666 24.3575C109.666 28.2847 112.599 31.4659 116.871 31.4659C121.143 31.4659 124.076 28.2592 124.076 24.3575C124.076 20.4559 121.143 17.2747 116.871 17.2747ZM116.871 20.2838C119.109 20.2838 120.824 22.1199 120.824 24.3575C120.824 26.6399 119.109 28.4568 116.871 28.4568C114.633 28.4568 112.917 26.5953 112.917 24.3575C112.917 22.1199 114.633 20.2838 116.871 20.2838ZM125.944 25.4732V17.619H129.202V25.4732C129.202 27.2647 130.248 28.4824 132.033 28.4824C133.819 28.4824 134.89 27.2647 134.89 25.4732V17.619H138.148V25.4732C138.148 29.2538 135.814 31.4404 132.033 31.4404C128.252 31.4404 125.944 29.2283 125.944 25.4732ZM143.485 17.619H140.303L140.297 17.6126V31.1089H143.53V23.8284C143.53 21.7182 144.875 20.2264 146.813 20.2264C148.554 20.2264 149.772 21.4632 149.772 23.7774V31.1089H153.03V22.8848C153.03 19.0597 150.473 17.2683 147.738 17.2683C145.749 17.2683 144.205 18.1864 143.485 19.506V17.619ZM182.904 31.1153V23.0633C182.904 18.7665 179.92 17.3001 176.763 17.3001C174.481 17.3001 172.568 18.0461 171.248 18.8685L172.466 21.2783C173.633 20.6089 175.15 20.1371 176.642 20.1371C178.434 20.1371 179.703 20.8576 179.875 22.7191C179.088 22.8081 178.237 22.8179 177.456 22.827C177.174 22.8303 176.9 22.8335 176.642 22.8403C172.938 22.8657 170.674 24.434 170.674 27.0925C170.674 29.5533 172.415 31.4658 175.545 31.4658C177.509 31.4658 179.027 30.7199 179.971 29.5278V31.1153H182.904ZM177.388 25.2756C178.185 25.2756 179.027 25.2501 179.824 25.1735L179.83 25.1799C179.652 27.2901 178.141 28.8074 176.075 28.8074C174.729 28.8074 173.837 28.1571 173.837 27.0415C173.837 25.5496 175.227 25.3011 177.388 25.2756ZM194.84 30.3184C193.794 31.0388 192.302 31.434 190.938 31.434C187.877 31.434 186.315 29.5979 186.315 26.1681V20.3539H184.077V17.619H186.366V12.8503H189.573V17.619H194.094V20.3539H189.573V26.047C189.573 27.6344 190.147 28.4823 191.537 28.4823C192.404 28.4823 193.15 28.1826 193.826 27.7874L194.846 30.3247L194.84 30.3184ZM201.548 24.3575C201.548 20.4559 204.481 17.2747 208.753 17.2747C213.025 17.2747 215.958 20.4559 215.958 24.3575C215.958 28.2592 213.025 31.4659 208.753 31.4659C204.481 31.4659 201.548 28.2847 201.548 24.3575ZM212.706 24.3575C212.706 22.1199 210.991 20.2838 208.753 20.2838C206.515 20.2838 204.8 22.1199 204.8 24.3575C204.8 26.5953 206.515 28.4568 208.753 28.4568C210.991 28.4568 212.706 26.6399 212.706 24.3575ZM221.186 17.619H218.005L217.998 17.6126V31.1089H221.231V23.8284C221.231 21.7182 222.576 20.2264 224.515 20.2264C226.255 20.2264 227.474 21.4632 227.474 23.7774V31.1089H230.732V22.8848C230.732 19.0597 228.176 17.2683 225.439 17.2683C223.45 17.2683 221.907 18.1864 221.186 19.506V17.619Z" fill="#f5f5f5"/>
</svg>
