<?xml version="1.0" standalone="no"?>
<!DOCTYPE svg PUBLIC "-//W3C//DTD SVG 20010904//EN"
 "http://www.w3.org/TR/2001/REC-SVG-20010904/DTD/svg10.dtd">
<svg version="1.0" xmlns="http://www.w3.org/2000/svg"
 width="411.000000pt" height="334.000000pt" viewBox="0 0 411.000000 334.000000"
 preserveAspectRatio="xMidYMid meet">

<g transform="translate(0.000000,334.000000) scale(0.100000,-0.100000)"
fill="#000000" stroke="none">
<path d="M448 2883 c-5 -110 -24 -167 -47 -139 -8 9 -16 36 -19 61 -2 25 -8
45 -13 45 -13 0 -69 -146 -69 -180 0 -9 12 -33 26 -54 l26 -39 64 7 c46 5 72
3 91 -7 25 -13 33 -12 81 9 42 19 56 32 68 60 19 45 28 150 16 189 -8 30 -42
48 -42 23 0 -17 -48 -88 -59 -88 -5 0 -12 17 -16 37 -9 51 -72 173 -89 173
-10 0 -15 -24 -18 -97z m86 -110 c0 -35 1 -63 3 -63 8 0 71 68 88 94 35 53 48
-28 19 -123 -14 -47 -19 -54 -60 -72 -61 -26 -64 -25 -51 17 10 33 9 38 -12
56 -32 25 -45 19 -52 -25 -3 -21 -8 -39 -11 -42 -2 -3 -26 -6 -53 -7 -45 -3
-50 -1 -68 30 -19 33 -19 33 1 94 l20 61 23 -51 c13 -29 28 -51 34 -49 23 8
54 112 55 182 l0 70 32 -55 c26 -46 32 -66 32 -117z m-20 -111 c9 -15 -6 -52
-21 -52 -10 0 -13 6 -9 16 3 9 6 22 6 30 0 15 16 19 24 6z"/>
<path d="M3528 2833 c-5 -110 -24 -167 -47 -139 -8 9 -16 36 -19 61 -2 25 -8
45 -13 45 -13 0 -69 -146 -69 -180 0 -9 12 -33 26 -54 l26 -39 64 7 c46 5 72
3 91 -7 25 -13 33 -12 81 9 42 19 56 32 68 60 19 45 28 150 16 189 -8 30 -42
48 -42 23 0 -17 -48 -88 -59 -88 -5 0 -12 17 -16 37 -9 51 -72 173 -89 173
-10 0 -15 -24 -18 -97z m86 -110 c0 -35 1 -63 3 -63 8 0 71 68 88 94 35 53 48
-28 19 -123 -14 -47 -19 -54 -60 -72 -61 -26 -64 -25 -51 17 10 33 9 38 -12
56 -32 25 -45 19 -52 -25 -3 -21 -8 -39 -11 -42 -2 -3 -26 -6 -53 -7 -45 -3
-50 -1 -68 30 -19 33 -19 33 1 94 l20 61 23 -51 c13 -29 28 -51 34 -49 23 8
54 112 55 182 l0 70 32 -55 c26 -46 32 -66 32 -117z m-20 -111 c9 -15 -6 -52
-21 -52 -10 0 -13 6 -9 16 3 9 6 22 6 30 0 15 16 19 24 6z"/>
<path d="M3072 2808 c-13 -13 -15 -51 -5 -150 7 -77 23 -92 23 -23 l0 45 28
-17 c15 -9 39 -28 54 -42 15 -13 31 -22 34 -18 9 9 -4 26 -47 56 l-38 28 24
23 c27 26 32 65 11 93 -15 20 -66 23 -84 5z m73 -42 c0 -20 -9 -36 -32 -53
l-33 -26 0 50 c0 57 5 65 40 61 20 -2 25 -8 25 -32z"/>
<path d="M910 2800 l-54 -5 2 -95 c3 -101 8 -130 22 -130 5 0 6 25 3 55 l-6
55 42 0 c23 0 41 5 41 11 0 7 -15 10 -40 7 l-40 -4 0 43 0 43 44 0 c25 0 47 4
51 9 8 15 -5 17 -65 11z"/>
<path d="M1290 2705 c0 -63 4 -105 10 -105 6 0 10 38 10 95 l0 95 29 0 c52 0
54 -72 3 -91 l-25 -10 48 -49 c27 -27 53 -47 58 -43 5 3 -8 22 -28 43 l-37 38
21 21 c23 23 27 61 11 92 -8 14 -21 19 -55 19 l-45 0 0 -105z"/>
<path d="M1753 2766 c-14 -29 -14 -39 -3 -66 7 -17 21 -35 31 -41 29 -15 24
-57 -7 -71 -20 -10 -27 -9 -34 2 -11 18 -24 6 -17 -15 8 -19 46 -19 75 1 31
21 28 60 -8 101 -16 18 -30 41 -30 49 0 25 19 54 36 54 8 0 12 5 9 10 -12 20
-36 9 -52 -24z"/>
<path d="M1953 2789 c-47 -14 -41 -28 9 -22 l41 6 -6 -86 c-4 -48 -3 -87 2
-87 10 0 21 73 21 136 0 33 4 44 16 44 8 0 12 5 9 10 -7 12 -48 12 -92 -1z"/>
<path d="M2380 2771 c-13 -25 -13 -181 0 -181 6 0 10 18 10 40 0 22 3 40 8 40
4 0 28 -20 54 -45 26 -25 50 -41 53 -36 3 5 -14 28 -37 51 l-43 41 23 16 c12
8 22 25 22 38 0 47 -69 74 -90 36z m64 -24 c9 -15 6 -21 -14 -37 -14 -11 -28
-20 -32 -20 -10 0 -10 64 -1 74 11 11 35 3 47 -17z"/>
<path d="M2875 2783 c-11 -3 -25 -9 -30 -14 -10 -8 -14 -205 -4 -203 2 0 21 4
42 8 20 4 37 12 37 18 0 6 -13 8 -34 4 -31 -6 -33 -5 -28 19 3 20 10 25 33 25
17 0 29 5 29 13 0 9 -9 12 -29 9 -26 -4 -29 -1 -35 38 -8 51 -5 56 39 64 19 4
35 11 35 16 0 10 -21 11 -55 3z"/>
<path d="M1067 2773 c-13 -13 -7 -21 13 -16 19 5 20 0 20 -81 0 -70 -3 -86
-15 -86 -8 0 -15 -5 -15 -11 0 -8 11 -9 31 -5 17 3 40 6 50 6 11 0 19 5 19 10
0 6 -11 10 -25 10 -25 0 -25 1 -25 80 0 64 3 80 15 80 8 0 15 5 15 10 0 11
-73 14 -83 3z"/>
<path d="M1528 2769 c-15 -8 -18 -25 -18 -93 l0 -84 43 -4 c46 -5 60 -2 52 13
-4 5 -22 9 -41 9 -31 0 -34 2 -34 30 0 28 3 30 34 30 19 0 38 5 41 10 4 6 -10
10 -35 10 -41 0 -41 1 -38 33 3 27 7 32 33 35 17 2 34 8 40 13 13 13 -55 11
-77 -2z"/>
<path d="M2166 2715 c-20 -36 -36 -72 -36 -80 0 -7 -4 -17 -10 -20 -12 -8 -13
-35 -1 -35 5 0 15 16 23 36 13 33 19 37 53 38 33 1 40 -3 53 -31 9 -18 19 -33
24 -33 11 0 10 27 -1 34 -5 3 -19 40 -32 81 -13 41 -27 75 -30 75 -4 0 -23
-29 -43 -65z m52 -18 c3 -22 -1 -27 -17 -27 -21 0 -26 15 -15 45 9 23 29 13
32 -18z"/>
<path d="M2580 2770 c0 -5 18 -10 39 -10 l39 0 7 -90 c4 -51 12 -90 17 -90 7
0 8 25 4 73 -7 79 -2 107 19 107 8 0 17 5 20 10 4 6 -22 10 -69 10 -44 0 -76
-4 -76 -10z"/>
<path d="M2779 2206 c-74 -26 -178 -117 -208 -181 -11 -22 -22 -70 -26 -108
-6 -65 -8 -68 -50 -97 -56 -39 -95 -86 -95 -115 0 -28 12 -37 59 -45 l35 -5
-3 -55 c-3 -66 12 -110 39 -117 11 -3 25 -22 34 -49 15 -46 64 -122 97 -153
20 -18 20 -19 2 -25 -10 -3 -49 -8 -87 -11 -76 -6 -147 -20 -188 -36 -24 -10
-28 -17 -28 -51 0 -34 -7 -46 -63 -101 -67 -66 -87 -109 -87 -187 0 -62 77
-178 148 -221 21 -14 32 -28 32 -44 0 -50 12 -81 38 -94 36 -19 391 -28 447
-12 22 7 114 20 205 31 331 39 356 45 346 83 -3 12 -9 130 -12 263 -5 184 -4
243 5 248 19 12 89 -40 111 -84 23 -46 26 -125 6 -173 -7 -18 -34 -55 -60 -83
-43 -49 -56 -74 -38 -74 13 0 110 123 122 154 17 46 12 142 -10 185 -22 44
-88 101 -118 101 -17 0 -20 9 -25 81 -3 44 -7 83 -10 85 -3 3 -64 0 -136 -7
-73 -6 -134 -9 -136 -7 -3 3 11 23 30 46 62 71 83 133 91 260 4 61 11 112 15
112 5 0 18 -9 29 -20 31 -31 27 -89 -10 -135 -36 -45 -37 -48 -7 -34 59 27 78
139 32 184 -13 14 -30 25 -37 25 -10 0 -14 25 -15 94 -4 151 -34 217 -151 327
-52 49 -83 59 -189 59 -54 -1 -114 -7 -134 -14z m443 -538 c6 -79 -9 -182 -33
-230 -12 -24 -42 -67 -67 -95 -42 -50 -47 -53 -93 -53 -27 0 -105 -5 -174 -11
-151 -14 -165 -9 -218 66 -52 75 -67 123 -67 221 l0 84 103 0 c120 0 239 13
323 36 32 9 93 20 134 24 41 4 78 8 82 8 3 1 8 -22 10 -50z m-681 -55 c-4 -15
-3 -44 3 -65 11 -40 3 -59 -16 -40 -17 17 -23 109 -8 127 18 21 29 9 21 -22z
m840 -378 c3 -27 8 -183 10 -345 l4 -294 -42 -8 c-23 -4 -84 -12 -135 -18
-195 -23 -314 -39 -353 -49 -78 -20 -410 -10 -433 13 -4 4 -10 49 -14 99 -4
51 -12 139 -17 197 -6 58 -10 162 -11 231 l0 125 93 17 c50 9 145 21 210 27
64 6 132 16 150 21 17 5 81 9 142 10 60 0 139 6 175 14 36 7 99 13 140 12 l75
-2 6 -50z m-1024 -192 c-4 -21 0 -87 9 -148 25 -188 28 -235 15 -235 -17 0
-97 87 -126 136 -46 78 -29 163 47 235 28 27 53 49 56 49 2 0 2 -17 -1 -37z"/>
<path d="M3005 1599 c-9 -27 5 -40 45 -42 36 -2 57 20 47 47 -4 11 -19 16 -46
16 -32 0 -41 -4 -46 -21z"/>
<path d="M2636 1588 c-20 -29 -4 -48 40 -48 27 0 35 5 40 24 8 34 -2 46 -36
46 -18 0 -34 -8 -44 -22z"/>
<path d="M2837 1501 c-8 -36 0 -61 18 -61 10 0 12 10 8 38 -8 50 -19 60 -26
23z"/>
<path d="M2772 1398 c2 -7 25 -23 50 -36 35 -18 55 -22 82 -17 51 10 44 25
-11 25 -30 0 -60 8 -81 20 -38 23 -45 25 -40 8z"/>
<path d="M1225 2121 c-84 -21 -159 -89 -211 -193 -61 -121 -73 -273 -48 -618
l6 -85 -46 -13 -46 -12 0 -86 c0 -65 -4 -91 -17 -108 l-18 -23 -42 64 c-23 35
-54 79 -70 97 -115 136 -127 157 -134 223 -7 71 -20 93 -42 75 -11 -9 -16 -7
-25 13 -11 25 -32 34 -32 15 0 -5 -13 -10 -29 -10 -41 0 -51 -45 -22 -98 11
-20 43 -84 71 -142 83 -172 92 -186 178 -303 114 -152 129 -167 169 -167 34 0
38 -7 34 -57 -1 -12 3 -24 9 -28 5 -3 10 -34 10 -68 0 -34 5 -69 10 -77 5 -8
10 -11 10 -6 0 5 7 2 17 -5 22 -19 381 -26 438 -10 22 7 114 20 205 31 225 27
311 40 332 51 14 8 16 18 11 60 -5 46 -4 52 25 82 83 86 82 239 -4 312 -20 17
-24 32 -29 100 -3 44 -8 104 -11 133 l-6 53 -86 -6 c-48 -3 -96 -8 -107 -10
-19 -4 -20 2 -22 128 -1 149 -15 227 -67 371 -38 107 -49 127 -109 198 -47 56
-80 77 -167 106 -67 23 -86 25 -135 13z m29 -276 c12 -8 54 -26 92 -39 144
-49 184 -81 209 -168 30 -106 19 -165 -57 -284 l-39 -62 -88 -11 c-48 -6 -97
-11 -109 -11 -30 0 -126 119 -153 189 -44 115 -24 256 51 360 32 44 56 51 94
26z m-677 -493 c-4 -36 -1 -49 15 -66 11 -12 45 -55 75 -96 31 -41 61 -79 67
-85 6 -5 31 -40 56 -77 44 -69 56 -78 78 -56 7 7 12 9 12 6 0 -4 5 -41 11 -84
6 -42 8 -87 5 -100 -8 -31 -45 -32 -74 -1 -60 64 -196 262 -234 341 -24 50
-57 120 -75 155 -30 61 -31 67 -15 81 9 8 26 17 37 18 11 2 22 8 23 13 2 5 8
6 14 3 6 -4 8 -26 5 -52z m1324 -117 c3 -27 8 -183 10 -345 l4 -294 -42 -8
c-23 -4 -82 -11 -130 -17 -48 -6 -128 -15 -178 -21 -49 -5 -123 -17 -163 -26
-87 -20 -401 -16 -439 4 -20 11 -23 21 -23 77 0 35 -5 85 -10 112 -11 52 -29
414 -22 450 3 17 16 24 75 37 114 25 220 44 242 44 64 0 447 25 480 32 22 5
74 7 115 7 l75 -2 6 -50z m55 -223 c23 -15 54 -92 54 -134 0 -44 -35 -129 -56
-135 -13 -4 -24 85 -24 198 0 77 3 86 26 71z"/>
<path d="M1474 1596 c-29 -22 -5 -40 40 -32 37 7 48 29 20 40 -24 9 -38 7 -60
-8z"/>
<path d="M1168 1589 c-10 -5 -18 -14 -18 -18 0 -14 71 -24 83 -12 22 22 -35
48 -65 30z"/>
<path d="M1330 1460 c0 -5 7 -10 16 -10 8 0 12 5 9 10 -3 6 -10 10 -16 10 -5
0 -9 -4 -9 -10z"/>
<path d="M1323 1423 c-29 -5 -30 -29 -2 -43 24 -13 73 -5 89 15 21 25 -26 40
-87 28z"/>
</g>
</svg>
